# xmcd
#
# Track frame offsets: 
#        150
#        15185
#        29687
#        40755
#        54232
#        70267
#        92325
#        102917
#        120720
#        133790
#        143472
#        158250
#
# Disc length: 2449 seconds
#
# Revision: 0
# Processed by: cddbd v1.5.1PL0 Copyright (c) Steve Scherf et al.
# Submitted via: ExactAudioCopy v0.95b3
#
DISCID=89098f0c
DTITLE=Cody! - Big Dreams
DYEAR=1995
DGENRE=Country
TTITLE0=One and Only
TTITLE1=Whats Your Name
TTITLE2=Don't Ever Let the Blues (Get a Hold on You)
TTITLE3=I'm So Lucky
TTITLE4=Shambala
TTITLE5=Come Out Come Out
TTITLE6=Don't Go
TTITLE7=Our Love's Grown Out of Touch
TTITLE8=All the Way
TTITLE9=Where or When
TTITLE10=Chocolate
TTITLE11=Medley: Runaround Sue/Da Do Ron Ron
EXTD=
EXTT0=
EXTT1=
EXTT2=
EXTT3=
EXTT4=
EXTT5=
EXTT6=
EXTT7=
EXTT8=
EXTT9=
EXTT10=
EXTT11=
PLAYORDER=
